<svg width="16" height="17" viewBox="0 0 16 17" fill="none" xmlns="http://www.w3.org/2000/svg">
<path d="M7.16196 3.40532C7.4329 3.36526 7.7124 3.34377 8.00028 3.34377C11.4036 3.34377 13.6369 6.347 14.3871 7.53499C14.4779 7.67877 14.5233 7.75066 14.5488 7.86155C14.5678 7.94483 14.5678 8.07621 14.5487 8.15949C14.5233 8.27037 14.4776 8.34274 14.3861 8.48748C14.1862 8.80387 13.8814 9.24851 13.4777 9.73074M4.48288 4.48713C3.0415 5.4649 2.06297 6.82336 1.61407 7.53396C1.52286 7.67835 1.47725 7.75055 1.45183 7.86142C1.43273 7.9447 1.43272 8.07606 1.45181 8.15934C1.47722 8.27022 1.52262 8.34211 1.61342 8.48589C2.36369 9.67388 4.59694 12.6771 8.00028 12.6771C9.37255 12.6771 10.5546 12.1888 11.5259 11.5282M2.00028 2.01044L14.0003 14.0104M6.58606 6.59622C6.22413 6.95815 6.00028 7.45815 6.00028 8.01044C6.00028 9.11501 6.89571 10.0104 8.00028 10.0104C8.55256 10.0104 9.05256 9.78658 9.41449 9.42465" stroke="#858D9D" strokeWidth="2" strokeLinecap="round" strokeLinejoin="round"/>
</svg>
