<svg width="16" height="17" viewBox="0 0 16 17" fill="none" xmlns="http://www.w3.org/2000/svg">
<path d="M1.61342 8.48589C1.52262 8.34213 1.47723 8.27025 1.45182 8.15938C1.43273 8.0761 1.43273 7.94477 1.45182 7.86149C1.47723 7.75062 1.52262 7.67874 1.61341 7.53498C2.36369 6.347 4.59693 3.34377 8.00027 3.34377C11.4036 3.34377 13.6369 6.347 14.3871 7.53498C14.4779 7.67874 14.5233 7.75062 14.5487 7.86149C14.5678 7.94477 14.5678 8.0761 14.5487 8.15938C14.5233 8.27025 14.4779 8.34213 14.3871 8.48589C13.6369 9.67388 11.4036 12.6771 8.00027 12.6771C4.59693 12.6771 2.36369 9.67388 1.61342 8.48589Z" stroke="#858D9D" strokeWidth="2" strokeLinecap="round" strokeLinejoin="round"/>
<path d="M8.00027 10.0104C9.10484 10.0104 10.0003 9.11501 10.0003 8.01044C10.0003 6.90587 9.10484 6.01044 8.00027 6.01044C6.8957 6.01044 6.00027 6.90587 6.00027 8.01044C6.00027 9.11501 6.8957 10.0104 8.00027 10.0104Z" stroke="#858D9D" strokeWidth="2" strokeLinecap="round" strokeLinejoin="round"/>
</svg>
