<svg width="25" height="25" viewBox="0 0 25 25" fill="none" xmlns="http://www.w3.org/2000/svg">
<g id="Social icon" clipPath="url(#clip0_340_421)">
<path id="Vector" d="M24.266 12.2869C24.266 11.4711 24.1999 10.651 24.0588 9.84851H12.74V14.4695H19.2217C18.9528 15.9598 18.0885 17.2782 16.823 18.116V21.1144H20.69C22.9608 19.0243 24.266 15.9378 24.266 12.2869Z" fill="#4285F4"/>
<path id="Vector_2" d="M12.74 24.0113C15.9764 24.0113 18.7058 22.9486 20.6944 21.1143L16.8274 18.116C15.7516 18.8479 14.3626 19.2624 12.7444 19.2624C9.61376 19.2624 6.95934 17.1503 6.00693 14.3107H2.01648V17.4017C4.05359 21.4538 8.20278 24.0113 12.74 24.0113Z" fill="#34A853"/>
<path id="Vector_3" d="M6.00253 14.3107C5.49987 12.8204 5.49987 11.2065 6.00253 9.71619V6.62524H2.01649C0.31449 10.016 0.31449 14.0109 2.01649 17.4017L6.00253 14.3107Z" fill="#FBBC04"/>
<path id="Vector_4" d="M12.74 4.7601C14.4508 4.73364 16.1043 5.3774 17.3433 6.5591L20.7694 3.13305C18.6 1.09594 15.7207 -0.024029 12.74 0.0112457C8.20277 0.0112457 4.05359 2.56866 2.01648 6.62525L6.00252 9.71619C6.95052 6.87217 9.60935 4.7601 12.74 4.7601Z" fill="#EA4335"/>
</g>
<defs>
<clipPath id="clip0_340_421">
<rect width="24" height="24" fill="white" transform="translate(0.5 0.010437)"/>
</clipPath>
</defs>
</svg>
